<?xml version="1.0" encoding="UTF-8"?>
<svg width="45px" height="41px" viewBox="0 0 45 41" version="1.1" xmlns="http://www.w3.org/2000/svg" xmlns:xlink="http://www.w3.org/1999/xlink">
    <!-- Generator: Sketch 46.2 (44496) - http://www.bohemiancoding.com/sketch -->
    <title>Buy_icon</title>
    <desc>Created with Sketch.</desc>
    <defs></defs>
    <g id="Page" stroke="none" stroke-width="1" fill="none" fill-rule="evenodd">
        <g id="Versio-#11" transform="translate(-864.000000, -3096.000000)" fill-rule="nonzero" fill="#000000">
            <g id="Group-8" transform="translate(183.000000, 1306.000000)">
                <g id="Group-13">
                    <g id="Group-35" transform="translate(0.000000, 740.000000)">
                        <g id="Group-37" transform="translate(0.000000, 733.000000)">
                            <g id="Group-38" transform="translate(651.000000, 270.000000)">
                                <g id="Group-7-Copy">
                                    <g id="Group-5">
                                        <g id="Group-6" transform="translate(30.000000, 40.000000)">
                                            <g id="Buy_icon" transform="translate(0.000000, 7.000000)">
                                                <path d="M44.8125,6 C44.625,5.8125 44.4375,5.625 44.0625,5.625 L8.4375,5.625 L7.5,0.75 C7.5,0.375 6.9375,0 6.5625,0 L0.9375,0 C0.375,0 0,0.375 0,0.9375 C0,1.5 0.375,1.875 0.9375,1.875 L5.8125,1.875 L10.3125,24.75 C10.875,27.75 13.6875,30 16.6875,30 L38.25,30 C38.8125,30 39.1875,29.625 39.1875,29.0625 C39.1875,28.5 38.8125,28.125 38.25,28.125 L16.875,28.125 C15.375,28.125 13.875,27.375 13.125,26.0625 L40.5,22.3125 C40.875,22.3125 41.25,21.9375 41.25,21.5625 L45,6.5625 C45,6.5625 45,6.1875 44.8125,6 Z M39.5625,20.625 L12.1875,24.1875 L8.8125,7.3125 L42.75,7.3125 L39.5625,20.625 Z" id="Shape"></path>
                                                <path d="M15.5,32 C12.98,32 11,33.98 11,36.5 C11,39.02 12.98,41 15.5,41 C18.02,41 20,39.02 20,36.5 C20,33.98 18.02,32 15.5,32 Z M15.5,39.2 C14.06,39.2 12.8,37.94 12.8,36.5 C12.8,35.06 14.06,33.8 15.5,33.8 C16.94,33.8 18.2,35.06 18.2,36.5 C18.2,37.94 16.94,39.2 15.5,39.2 Z" id="Shape"></path>
                                                <path d="M34.5,32 C31.98,32 30,33.98 30,36.5 C30,39.02 31.98,41 34.5,41 C37.02,41 39,39.02 39,36.5 C39,33.98 37.02,32 34.5,32 Z M34.5,39.2 C33.06,39.2 31.8,37.94 31.8,36.5 C31.8,35.06 33.06,33.8 34.5,33.8 C35.94,33.8 37.2,35.06 37.2,36.5 C37.2,37.94 35.94,39.2 34.5,39.2 Z" id="Shape"></path>
                                            </g>
                                        </g>
                                    </g>
                                </g>
                            </g>
                        </g>
                    </g>
                </g>
            </g>
        </g>
    </g>
</svg>