<?xml version="1.0" encoding="UTF-8"?>
<svg width="55px" height="37px" viewBox="0 0 55 37" version="1.1" xmlns="http://www.w3.org/2000/svg" xmlns:xlink="http://www.w3.org/1999/xlink">
    <!-- Generator: Sketch 46.2 (44496) - http://www.bohemiancoding.com/sketch -->
    <title>Consult_Icon</title>
    <desc>Created with Sketch.</desc>
    <defs></defs>
    <g id="Page" stroke="none" stroke-width="1" fill="none" fill-rule="evenodd">
        <g id="Versio-#11" transform="translate(-213.000000, -3056.000000)" fill-rule="nonzero" fill="#000000">
            <g id="Group-8" transform="translate(183.000000, 1306.000000)">
                <g id="Group-13">
                    <g id="Group-35" transform="translate(0.000000, 740.000000)">
                        <g id="Group-37" transform="translate(0.000000, 733.000000)">
                            <g id="Group-7" transform="translate(0.000000, 127.000000)">
                                <g id="Group-5" transform="translate(0.000000, 102.000000)">
                                    <g id="Group-6" transform="translate(30.000000, 42.000000)">
                                        <g id="Consult_Icon" transform="translate(0.000000, 6.000000)">
                                            <path d="M6.44736842,33 C6.27421053,33 6.10105263,32.9523333 5.95,32.8551667 C5.61657895,32.6425 5.45815789,32.2428333 5.55394737,31.8615 L7.10868421,25.6666667 L6.44736842,25.6666667 C2.89210526,25.6666667 0,22.7883333 0,19.25 L0,6.41666667 C0,2.87833333 2.89210526,0 6.44736842,0 L28.5526316,0 C32.1078947,0 35,2.87833333 35,6.41666667 C35,6.92266667 34.5873684,7.33333333 34.0789474,7.33333333 L26.7105263,7.33333333 C24.1721053,7.33333333 22.1052632,9.39033333 22.1052632,11.9166667 L22.1052632,22.9166667 C22.1052632,23.4061667 22.1992105,23.9048333 22.3907895,24.4438333 C22.4902632,24.7243333 22.4478947,25.036 22.2747368,25.2798333 C22.1015789,25.5218333 21.8215789,25.6666667 21.5231579,25.6666667 L15.9821053,25.6666667 L7.02394737,32.8001667 C6.85631579,32.9321667 6.65184211,33 6.44736842,33 Z M6.44736842,1.83333333 C3.90894737,1.83333333 1.84210526,3.89033333 1.84210526,6.41666667 L1.84210526,19.25 C1.84210526,21.7781667 3.90894737,23.8333333 6.44736842,23.8333333 L8.28947368,23.8333333 C8.57315789,23.8333333 8.84026316,23.9635 9.01526316,24.1853333 C9.19026316,24.4071667 9.25105263,24.6968333 9.18289474,24.9718333 L8.00210526,29.6706667 L15.0813158,24.0331667 C15.2452632,23.9048333 15.4478947,23.8333333 15.6578947,23.8333333 L20.3368421,23.8333333 C20.2871053,23.5253333 20.2631579,23.221 20.2631579,22.9166667 L20.2631579,11.9166667 C20.2631579,8.37833333 23.1552632,5.5 26.7105263,5.5 L33.0657895,5.5 C32.6384211,3.41 30.7760526,1.83333333 28.5526316,1.83333333 L6.44736842,1.83333333 Z" id="Shape"></path>
                                            <path d="M48.5526316,37 C48.3481579,37 48.1436842,36.9325294 47.9760526,36.8012353 L39.0178947,29.7058824 L26.4473684,29.7058824 C22.8921053,29.7058824 20,26.8429412 20,23.3235294 L20,12.3823529 C20,8.86294118 22.8921053,6 26.4473684,6 L48.5526316,6 C52.1078947,6 55,8.86294118 55,12.3823529 L55,23.3235294 C55,26.8429412 52.1078947,29.7058824 48.5526316,29.7058824 L47.8913158,29.7058824 L49.4478947,35.8675882 C49.5436842,36.2468824 49.3834211,36.6444118 49.0518421,36.8559412 C48.8989474,36.9525882 48.7257895,37 48.5526316,37 Z M26.4473684,7.82352941 C23.9089474,7.82352941 21.8421053,9.86952941 21.8421053,12.3823529 L21.8421053,23.3235294 C21.8421053,25.8381765 23.9089474,27.8823529 26.4473684,27.8823529 L39.3421053,27.8823529 C39.5502632,27.8823529 39.7547368,27.9534706 39.9186842,28.0811176 L46.9978947,33.6884706 L45.8171053,29.0147647 C45.7489474,28.7430588 45.8097368,28.4531176 45.9847368,28.2324706 C46.1597368,28.0118235 46.4268421,27.8823529 46.7105263,27.8823529 L48.5526316,27.8823529 C51.0928947,27.8823529 53.1578947,25.8381765 53.1578947,23.3235294 L53.1578947,12.3823529 C53.1578947,9.86952941 51.0928947,7.82352941 48.5526316,7.82352941 L26.4473684,7.82352941 Z" id="Shape"></path>
                                        </g>
                                    </g>
                                </g>
                            </g>
                        </g>
                    </g>
                </g>
            </g>
        </g>
    </g>
</svg>