<?xml version="1.0" encoding="UTF-8"?>
<svg width="43px" height="41px" viewBox="0 0 43 41" version="1.1" xmlns="http://www.w3.org/2000/svg" xmlns:xlink="http://www.w3.org/1999/xlink">
    <!-- Generator: Sketch 46.2 (44496) - http://www.bohemiancoding.com/sketch -->
    <title>Profile_Icon</title>
    <desc>Created with Sketch.</desc>
    <defs></defs>
    <g id="Page" stroke="none" stroke-width="1" fill="none" fill-rule="evenodd">
        <g id="Versio-#11" transform="translate(-213.000000, -1562.000000)" fill-rule="nonzero" fill="#000000">
            <g id="Group-8" transform="translate(183.000000, 1306.000000)">
                <g id="Group-13">
                    <g id="Group-7" transform="translate(0.000000, 127.000000)">
                        <g id="Group-5" transform="translate(0.000000, 84.000000)">
                            <g id="profile-app" transform="translate(30.000000, 45.000000)">
                                <path d="M26.5166667,31.4821429 L36.55,31.4821429 C36.9456,31.4821429 37.2666667,31.1541429 37.2666667,30.75 L37.2666667,26.3571429 C37.2666667,25.953 36.9456,25.625 36.55,25.625 L26.5166667,25.625 C26.1210667,25.625 25.8,25.953 25.8,26.3571429 L25.8,30.75 C25.8,31.1541429 26.1210667,31.4821429 26.5166667,31.4821429 Z M27.2333333,27.0892857 L35.8333333,27.0892857 L35.8333333,30.0178571 L27.2333333,30.0178571 L27.2333333,27.0892857 Z M38.6684667,0.732142857 L4.33153333,0.732142857 C1.94216667,0.732142857 0,2.68696429 0,5.08985714 L0,35.9101429 C0,38.3130357 1.94216667,40.2678571 4.33153333,40.2678571 L38.6684667,40.2678571 C41.0578333,40.2678571 43,38.3130357 43,35.9101429 L43,5.08985714 C43,2.68696429 41.0578333,0.732142857 38.6684667,0.732142857 Z M41.5666667,35.9101429 C41.5666667,37.5062143 40.2666333,38.8035714 38.6684667,38.8035714 L4.33153333,38.8035714 C2.73336667,38.8035714 1.43333333,37.5062143 1.43333333,35.9101429 L1.43333333,8.05357143 L41.5666667,8.05357143 L41.5666667,35.9101429 Z M41.5666667,6.58928571 L1.43333333,6.58928571 L1.43333333,5.08985714 C1.43333333,3.49378571 2.73336667,2.19642857 4.33153333,2.19642857 L38.6684667,2.19642857 C40.2666333,2.19642857 41.5666667,3.49378571 41.5666667,5.08985714 L41.5666667,6.58928571 Z M26.5166667,21.2321429 L36.55,21.2321429 C36.9456,21.2321429 37.2666667,20.9041429 37.2666667,20.5 L37.2666667,16.1071429 C37.2666667,15.703 36.9456,15.375 36.55,15.375 L26.5166667,15.375 C26.1210667,15.375 25.8,15.703 25.8,16.1071429 L25.8,20.5 C25.8,20.9041429 26.1210667,21.2321429 26.5166667,21.2321429 Z M27.2333333,16.8392857 L35.8333333,16.8392857 L35.8333333,19.7678571 L27.2333333,19.7678571 L27.2333333,16.8392857 Z M8.90243333,30.5625714 C8.90816667,30.5684286 8.9096,30.57575 8.91533333,30.5801429 C8.9268,30.5903929 8.9397,30.5977143 8.95116667,30.6065 C9.34533333,30.9564643 9.76816667,31.2698214 10.2168,31.5495 C10.2555,31.5743929 10.2942,31.5978214 10.3329,31.62125 C10.7715,31.8862857 11.2330333,32.1147143 11.7146333,32.3036071 C11.7619333,32.3226429 11.8106667,32.33875 11.8594,32.3577857 C12.3338333,32.5349643 12.8240333,32.6784643 13.3314333,32.7765714 C13.3816,32.7868214 13.4332,32.7912143 13.4833667,32.8 C13.9936333,32.8893214 14.5153667,32.9449643 15.0514333,32.9449643 C15.5875,32.9449643 16.1078,32.8878571 16.6195,32.8 C16.6696667,32.7912143 16.7212667,32.7853571 16.7714333,32.7765714 C17.2788333,32.6799286 17.7690333,32.5364286 18.2449,32.3577857 C18.2922,32.3402143 18.3395,32.3241071 18.3853667,32.3050714 C18.8684,32.1147143 19.3328,31.8848214 19.7728333,31.6183214 C19.8072333,31.5978214 19.8416333,31.5758571 19.8760333,31.5538929 C20.3304,31.2712857 20.7604,30.9520714 21.1603,30.59625 C21.1674667,30.5903929 21.1760667,30.586 21.1832333,30.5801429 C21.1861,30.5772143 21.1875333,30.5728214 21.1904,30.5684286 C23.1325667,28.823 24.3666667,26.2736786 24.3666667,23.4285714 C24.3666667,18.1805714 20.1870667,13.9107143 15.05,13.9107143 C9.91293333,13.9107143 5.73333333,18.1805714 5.73333333,23.4285714 C5.73333333,26.2692857 6.96456667,28.8171429 8.90243333,30.5625714 Z M19.9348,29.7381786 C17.1512667,31.9917143 12.9501667,31.9917143 10.1666333,29.7381786 C10.1652,29.7367143 10.1637667,29.73525 10.1623333,29.7337857 C10.6267333,27.3660357 12.6663667,25.625 15.05,25.625 C17.4336333,25.625 19.4732667,27.3660357 19.9391,29.73525 C19.9376667,29.7367143 19.9362333,29.7367143 19.9348,29.7381786 Z M12.9,21.9642857 C12.9,20.7533214 13.8646333,19.7678571 15.05,19.7678571 C16.2353667,19.7678571 17.2,20.7533214 17.2,21.9642857 C17.2,23.1723214 16.2382333,24.1563214 15.0571667,24.1607143 C15.0543,24.1607143 15.0514333,24.1607143 15.0485667,24.1607143 C15.0457,24.1607143 15.0442667,24.1607143 15.0414,24.1607143 C13.8603333,24.1548571 12.9,23.1723214 12.9,21.9642857 Z M15.05,15.375 C19.3973,15.375 22.9333333,18.9873929 22.9333333,23.4285714 C22.9333333,25.38925 22.2424667,27.1859286 21.0986667,28.5843214 C20.4866333,26.7861786 19.1493333,25.3614286 17.4608667,24.6541786 C18.1761,23.9835357 18.6333333,23.03175 18.6333333,21.9642857 C18.6333333,19.9465 17.0251333,18.3035714 15.05,18.3035714 C13.0748667,18.3035714 11.4666667,19.9465 11.4666667,21.9642857 C11.4666667,23.0302857 11.9239,23.9835357 12.6377,24.6527143 C10.9478,25.3599643 9.61193333,26.7847143 8.99846667,28.5813929 C7.8561,27.1844643 7.16666667,25.3877857 7.16666667,23.4285714 C7.16666667,18.9873929 10.7027,15.375 15.05,15.375 Z M13.6166667,3.66071429 C13.2210667,3.66071429 12.9,3.98871429 12.9,4.39285714 C12.9,4.797 13.2210667,5.125 13.6166667,5.125 C14.0122667,5.125 14.3333333,4.797 14.3333333,4.39285714 C14.3333333,3.98871429 14.0122667,3.66071429 13.6166667,3.66071429 Z M5.01666667,3.66071429 C4.62106667,3.66071429 4.3,3.98871429 4.3,4.39285714 C4.3,4.797 4.62106667,5.125 5.01666667,5.125 C5.41226667,5.125 5.73333333,4.797 5.73333333,4.39285714 C5.73333333,3.98871429 5.41226667,3.66071429 5.01666667,3.66071429 Z M9.31666667,3.66071429 C8.92106667,3.66071429 8.6,3.98871429 8.6,4.39285714 C8.6,4.797 8.92106667,5.125 9.31666667,5.125 C9.71226667,5.125 10.0333333,4.797 10.0333333,4.39285714 C10.0333333,3.98871429 9.71226667,3.66071429 9.31666667,3.66071429 Z" id="Profile_Icon"></path>
                            </g>
                        </g>
                    </g>
                </g>
            </g>
        </g>
    </g>
</svg>