<?xml version="1.0" encoding="UTF-8"?>
<svg width="39px" height="39px" viewBox="0 0 39 39" version="1.1" xmlns="http://www.w3.org/2000/svg" xmlns:xlink="http://www.w3.org/1999/xlink">
    <!-- Generator: Sketch 46.2 (44496) - http://www.bohemiancoding.com/sketch -->
    <title>Twitter icon</title>
    <desc>Created with Sketch.</desc>
    <defs></defs>
    <g id="Page" stroke="none" stroke-width="1" fill="none" fill-rule="evenodd">
        <g id="Versio-#11" transform="translate(-1249.000000, -46.000000)">
            <g id="Group-12" transform="translate(443.000000, -4.000000)">
                <g id="Group-10" transform="translate(0.000000, 50.000000)">
                    <g id="Group-9">
                        <g id="Group-3">
                            <g id="Socials" transform="translate(806.000000, 0.000000)">
                                <g id="Twitter-icon">
                                    <ellipse id="Oval" fill-opacity="0.186650815" fill="#000000" opacity="0.75464221" cx="19.263285" cy="19.5" rx="19.263285" ry="19.5"></ellipse>
                                    <path d="M25.2159903,16.0658727 C24.7781884,16.2651273 24.3067633,16.3998545 23.8129227,16.4608364 C24.3172705,16.1502545 24.7046377,15.6595636 24.8867633,15.0745636 C24.4146377,15.3617455 23.8920773,15.5702182 23.3351932,15.6822545 C22.889686,15.1951091 22.2550483,14.8909091 21.5524638,14.8909091 C20.2033333,14.8909091 19.1091787,16.0126909 19.1091787,17.3968364 C19.1091787,17.5939636 19.1315942,17.7847091 19.1729227,17.9683636 C17.1429227,17.8641273 15.3433816,16.8657273 14.1385507,15.3496909 C13.9277053,15.7198364 13.8079227,16.1502545 13.8079227,16.6097455 C13.8079227,17.4790909 14.2394203,18.2463273 14.894372,18.6951818 C14.4936957,18.6824182 14.1168357,18.5696727 13.7883092,18.3817636 L13.7883092,18.4136727 C13.7883092,19.6276364 14.6295894,20.6402182 15.7475604,20.8706727 C15.5423188,20.9281091 15.3272705,20.9586 15.1038164,20.9586 C14.9469082,20.9586 14.7935024,20.943 14.6442995,20.9132182 C14.955314,21.9087818 15.8575362,22.6334727 16.9264734,22.6540364 C16.0900966,23.3255455 15.03657,23.7261818 13.8919807,23.7261818 C13.6951449,23.7261818 13.5004106,23.7148364 13.3091787,23.6914364 C14.3900242,24.4026545 15.6740097,24.8174727 17.0539614,24.8174727 C21.5468599,24.8174727 24.0041546,20.9990182 24.0041546,17.6875636 C24.0041546,17.5783636 24.0013527,17.4712909 23.9971498,17.3635091 C24.4741787,17.0103818 24.8888647,16.5686182 25.2159903,16.0665818 L25.2159903,16.0658727 L25.2159903,16.0658727 Z" id="Twitter" fill="#FFFFFF"></path>
                                </g>
                            </g>
                        </g>
                    </g>
                </g>
            </g>
        </g>
    </g>
</svg>