<?xml version="1.0" encoding="UTF-8"?>
<svg width="47px" height="42px" viewBox="0 0 47 42" version="1.1" xmlns="http://www.w3.org/2000/svg" xmlns:xlink="http://www.w3.org/1999/xlink">
    <!-- Generator: Sketch 46.2 (44496) - http://www.bohemiancoding.com/sketch -->
    <title>Upload_File</title>
    <desc>Created with Sketch.</desc>
    <defs></defs>
    <g id="Page" stroke="none" stroke-width="1" fill="none" fill-rule="evenodd">
        <g id="Versio-#11" transform="translate(-886.000000, -1628.000000)" fill-rule="nonzero" fill="#000000">
            <g id="Group-8" transform="translate(183.000000, 1306.000000)">
                <g id="Group-13">
                    <g id="Group-14" transform="translate(673.000000, 277.000000)">
                        <g id="Group-7-Copy">
                            <g id="Group-5">
                                <g id="Group-6" transform="translate(30.000000, 40.000000)">
                                    <g id="profile-app" transform="translate(0.000000, 5.000000)">
                                        <g id="Upload_File">
                                            <path d="M41.125,0 L5.875,0 C3.17445833,0 0.979166667,2.142 0.979166667,4.77272727 L0.979166667,37.2272727 C0.979166667,39.858 3.17445833,42 5.875,42 L41.125,42 C43.8255417,42 46.0208333,39.858 46.0208333,37.2272727 L46.0208333,4.77272727 C46.0208333,2.142 43.8255417,0 41.125,0 Z M5.875,1.90909091 L41.125,1.90909091 C42.7445417,1.90909091 44.0625,3.19390909 44.0625,4.77272727 L44.0625,7.63636364 L2.9375,7.63636364 L2.9375,4.77272727 C2.9375,3.19390909 4.25545833,1.90909091 5.875,1.90909091 Z M41.125,40.0909091 L5.875,40.0909091 C4.25545833,40.0909091 2.9375,38.8060909 2.9375,37.2272727 L2.9375,9.54545455 L44.0625,9.54545455 L44.0625,37.2272727 C44.0625,38.8060909 42.7445417,40.0909091 41.125,40.0909091 Z" id="Shape"></path>
                                            <ellipse id="Oval" cx="5.875" cy="4.77272727" rx="1" ry="1"></ellipse>
                                            <ellipse id="Oval" cx="9.79166667" cy="4.77272727" rx="1" ry="1"></ellipse>
                                            <ellipse id="Oval" cx="13.7083333" cy="4.77272727" rx="1" ry="1"></ellipse>
                                            <path d="M20.2765833,22.6284545 L22.5208333,20.4406364 L22.5208333,27.6818182 C22.5208333,28.2087273 22.9595,28.6363636 23.5,28.6363636 C24.0405,28.6363636 24.4791667,28.2087273 24.481125,27.6818182 L24.481125,20.4444545 L26.7234167,22.6303636 C26.9153333,22.8155455 27.166,22.9090909 27.4166667,22.9090909 C27.6673333,22.9090909 27.918,22.8155455 28.1079583,22.6303636 C28.4898333,22.2580909 28.4898333,21.6529091 28.1079583,21.2806364 L24.1912917,17.4624545 C24.1070833,17.3803636 24.0072083,17.3230909 23.9034167,17.2772727 C23.8916667,17.2715455 23.88775,17.2600909 23.876,17.2543636 C23.8740417,17.2524545 23.870125,17.2543636 23.8681667,17.2543636 C23.7134583,17.1932727 23.547,17.1875455 23.3825,17.2066364 C23.3374583,17.2123636 23.2963333,17.22 23.2512917,17.2314545 C23.0907083,17.2715455 22.9379583,17.3383636 22.812625,17.4605455 C22.8106667,17.4624545 22.8087083,17.4624545 22.8087083,17.4624545 L22.80675,17.4643636 L22.80675,17.4643636 L22.80675,17.4643636 L18.8920417,21.2806364 C18.5101667,21.6529091 18.5101667,22.2580909 18.8920417,22.6303636 C19.2739167,23.0026364 19.8947083,23.0007273 20.2765833,22.6284545 Z" id="Shape"></path>
                                            <path d="M31.3333333,26.7272727 C30.7928333,26.7272727 30.3541667,27.1549091 30.3541667,27.6818182 L30.3541667,30.5454545 L16.6458333,30.5454545 L16.6458333,27.6818182 C16.6458333,27.1549091 16.2071667,26.7272727 15.6666667,26.7272727 C15.1261667,26.7272727 14.6875,27.1549091 14.6875,27.6818182 L14.6875,31.5 C14.6875,32.0269091 15.1261667,32.4545455 15.6666667,32.4545455 L31.3333333,32.4545455 C31.8738333,32.4545455 32.3125,32.0269091 32.3125,31.5 L32.3125,27.6818182 C32.3125,27.1549091 31.8738333,26.7272727 31.3333333,26.7272727 Z" id="Shape"></path>
                                        </g>
                                    </g>
                                </g>
                            </g>
                        </g>
                    </g>
                </g>
            </g>
        </g>
    </g>
</svg>