<?xml version="1.0" encoding="UTF-8"?>
<svg width="48px" height="31px" viewBox="0 0 48 31" version="1.1" xmlns="http://www.w3.org/2000/svg" xmlns:xlink="http://www.w3.org/1999/xlink">
    <!-- Generator: Sketch 46.2 (44496) - http://www.bohemiancoding.com/sketch -->
    <title>Visual_Icon</title>
    <desc>Created with Sketch.</desc>
    <defs></defs>
    <g id="Page" stroke="none" stroke-width="1" fill="none" fill-rule="evenodd">
        <g id="Versio-#11" transform="translate(-215.000000, -2322.000000)" fill-rule="nonzero" fill="#000000">
            <g id="Group-8" transform="translate(183.000000, 1306.000000)">
                <g id="Group-13">
                    <g id="Group-35" transform="translate(0.000000, 740.000000)">
                        <g id="Group-36">
                            <g id="Group-7" transform="translate(0.000000, 127.000000)">
                                <g id="Group-5" transform="translate(0.000000, 102.000000)">
                                    <g id="Group-6" transform="translate(32.000000, 40.000000)">
                                        <g id="Visual_Icon" transform="translate(0.000000, 7.000000)">
                                            <path d="M1,21.3125 C0.838,21.3125 0.676,21.27375 0.524,21.1943125 C0.038,20.9405 -0.142,20.3515 0.122,19.8806875 L10.108,2.034375 C10.962,0.7381875 12.36,0 13.876,0 C15.568,0 17.086,0.910625 17.842,2.375375 L19.892,6.34725 C20.138,6.8258125 19.938,7.4070625 19.444,7.6473125 C18.958,7.885625 18.354,7.6938125 18.106,7.21525 L16.056,3.243375 C15.638,2.437375 14.804,1.9375 13.876,1.9375 C13.042,1.9375 12.276,2.3424375 11.828,3.0205625 L1.878,20.804875 C1.698,21.1284375 1.354,21.3125 1,21.3125 Z" id="Shape"></path>
                                            <path d="M27,24.21875 C26.448,24.21875 26,23.78475 26,23.25 C26,22.7675625 25.38,22.28125 24,22.28125 C22.62,22.28125 22,22.7675625 22,23.25 C22,23.78475 21.552,24.21875 21,24.21875 C20.448,24.21875 20,23.78475 20,23.25 C20,21.8026875 21.236,20.34375 24,20.34375 C26.764,20.34375 28,21.8026875 28,23.25 C28,23.78475 27.552,24.21875 27,24.21875 Z" id="Shape"></path>
                                            <path d="M47,21.3125 C46.646,21.3125 46.302,21.1284375 46.122,20.804875 L36.136,2.9585625 C35.722,2.3424375 34.958,1.9375 34.124,1.9375 C33.196,1.9375 32.362,2.437375 31.946,3.2414375 L29.896,7.2133125 C29.648,7.6938125 29.05,7.885625 28.554,7.6473125 C28.06,7.4070625 27.86,6.8258125 28.106,6.34725 L30.156,2.375375 C30.912,0.910625 32.432,0 34.124,0 C35.642,0 37.038,0.7381875 37.856,1.9743125 L47.88,19.882625 C48.144,20.3534375 47.964,20.9405 47.478,21.19625 C47.324,21.27375 47.162,21.3125 47,21.3125 Z" id="Shape"></path>
                                            <path d="M13,31 C8.038,31 4,27.0881875 4,22.28125 C4,17.4743125 8.038,13.5625 13,13.5625 C17.962,13.5625 22,17.4743125 22,22.28125 C22,27.0881875 17.962,31 13,31 Z M13,15.5 C9.14,15.5 6,18.541875 6,22.28125 C6,26.020625 9.14,29.0625 13,29.0625 C16.86,29.0625 20,26.020625 20,22.28125 C20,18.541875 16.86,15.5 13,15.5 Z" id="Shape"></path>
                                            <path d="M35,31 C30.038,31 26,27.0881875 26,22.28125 C26,17.4743125 30.038,13.5625 35,13.5625 C39.962,13.5625 44,17.4743125 44,22.28125 C44,27.0881875 39.962,31 35,31 Z M35,15.5 C31.14,15.5 28,18.541875 28,22.28125 C28,26.020625 31.14,29.0625 35,29.0625 C38.86,29.0625 42,26.020625 42,22.28125 C42,18.541875 38.86,15.5 35,15.5 Z" id="Shape"></path>
                                            <path d="M5,21.3125 L1,21.3125 C0.448,21.3125 0,20.8785 0,20.34375 C0,19.809 0.448,19.375 1,19.375 L5,19.375 C5.552,19.375 6,19.809 6,20.34375 C6,20.8785 5.552,21.3125 5,21.3125 Z" id="Shape"></path>
                                            <path d="M47,21.3125 L43,21.3125 C42.448,21.3125 42,20.8785 42,20.34375 C42,19.809 42.448,19.375 43,19.375 L47,19.375 C47.552,19.375 48,19.809 48,20.34375 C48,20.8785 47.552,21.3125 47,21.3125 Z" id="Shape"></path>
                                        </g>
                                    </g>
                                </g>
                            </g>
                        </g>
                    </g>
                </g>
            </g>
        </g>
    </g>
</svg>